HIERARCHY
ROOT Hips
{
  OFFSET 5.84602e-005 68.8428 3.50346
  CHANNELS 6 Xposition Yposition Zposition Zrotation Xrotation Yrotation
  JOINT Spine
  {
    OFFSET 0 8.597 -4.6522
    CHANNELS 3 Zrotation Xrotation Yrotation
    JOINT Spine1
    {
      OFFSET 0 7.8454 0.4098
      CHANNELS 3 Zrotation Xrotation Yrotation
      JOINT Spine2
      {
        OFFSET 0 9.7078 -2.1609
        CHANNELS 3 Zrotation Xrotation Yrotation
        JOINT Neck
        {
          OFFSET 0 21.8761 -0.4549
          CHANNELS 3 Zrotation Xrotation Yrotation
          JOINT Head
          {
            OFFSET 0 12.3537 3.3602
            CHANNELS 3 Zrotation Xrotation Yrotation
            End Site
            {
              OFFSET 0.0001 18.9506 0.5657
            }
          }
        }
        JOINT LeftShoulder
        {
          OFFSET 2.2086 21.1115 7.2329
          CHANNELS 3 Zrotation Xrotation Yrotation
          JOINT LeftArm
          {
            OFFSET 13.1193 3.0282 -4.8998
            CHANNELS 3 Zrotation Xrotation Yrotation
            JOINT LeftForeArm
            {
              OFFSET 27.4081 -0.0973053 -0.2375
              CHANNELS 3 Zrotation Xrotation Yrotation
              JOINT LeftHand
              {
                OFFSET 22.8641 0.0662994 -0.1369
                CHANNELS 3 Zrotation Xrotation Yrotation
                JOINT LeftHandIndex1
                {
                  OFFSET 8.8614 0.775009 2.4612
                  CHANNELS 3 Zrotation Xrotation Yrotation
                  JOINT LeftHandIndex2
                  {
                    OFFSET 3.3146 -0.808304 0.5841
                    CHANNELS 3 Zrotation Xrotation Yrotation
                    JOINT LeftHandIndex3
                    {
                      OFFSET 2.2628 -0.552002 0.3989
                      CHANNELS 3 Zrotation Xrotation Yrotation
                      End Site
                      {
                        OFFSET 1.6102 -0.4807 0.2612
                      }
                    }
                  }
                }
                JOINT LeftHandMiddle1
                {
                  OFFSET 8.9937 0.895004 0.2143
                  CHANNELS 3 Zrotation Xrotation Yrotation
                  JOINT LeftHandMiddle2
                  {
                    OFFSET 4.0984 0.0113983 -0.0242
                    CHANNELS 3 Zrotation Xrotation Yrotation
                    JOINT LeftHandMiddle3
                    {
                      OFFSET 2.2716 0.00689697 -0.0138001
                      CHANNELS 3 Zrotation Xrotation Yrotation
                      End Site
                      {
                        OFFSET 2.0404 -0.1441 0.0027
                      }
                    }
                  }
                }
                JOINT LeftHandRing1
                {
                  OFFSET 8.5234 0.597198 -2.0164
                  CHANNELS 3 Zrotation Xrotation Yrotation
                  JOINT LeftHandRing2
                  {
                    OFFSET 3.7188 -0.188293 -0.2328
                    CHANNELS 3 Zrotation Xrotation Yrotation
                    JOINT LeftHandRing3
                    {
                      OFFSET 2.1191 -0.106598 -0.1332
                      CHANNELS 3 Zrotation Xrotation Yrotation
                      End Site
                      {
                        OFFSET 1.8737 -0.2304 -0.0886
                      }
                    }
                  }
                }
                JOINT LeftHandPinky1
                {
                  OFFSET 7.9094 -0.601089 -3.4825
                  CHANNELS 3 Zrotation Xrotation Yrotation
                  JOINT LeftHandPinky2
                  {
                    OFFSET 2.2874 -0.477005 -0.6314
                    CHANNELS 3 Zrotation Xrotation Yrotation
                    JOINT LeftHandPinky3
                    {
                      OFFSET 1.6774 -0.349396 -0.4633
                      CHANNELS 3 Zrotation Xrotation Yrotation
                      End Site
                      {
                        OFFSET 1.4888 -0.4091 -0.3416
                      }
                    }
                  }
                }
                JOINT LeftHandThumb1
                {
                  OFFSET 1.833 -1.3875 1.3896
                  CHANNELS 3 Zrotation Xrotation Yrotation
                  JOINT LeftHandThumb2
                  {
                    OFFSET 3.4129 -1.121 2.5732
                    CHANNELS 3 Zrotation Xrotation Yrotation
                    JOINT LeftHandThumb3
                    {
                      OFFSET 2.2474 -0.804199 1.6192
                      CHANNELS 3 Zrotation Xrotation Yrotation
                      End Site
                      {
                        OFFSET 1.6527 -0.5689 1.1317
                      }
                    }
                  }
                }
              }
            }
          }
        }
        JOINT RightShoulder
        {
          OFFSET -2.2086 21.1115 7.2329
          CHANNELS 3 Zrotation Xrotation Yrotation
          JOINT RightArm
          {
            OFFSET -13.1216 3.0287 -4.9007
            CHANNELS 3 Zrotation Xrotation Yrotation
            JOINT RightForeArm
            {
              OFFSET -27.4081 -0.0973053 -0.2375
              CHANNELS 3 Zrotation Xrotation Yrotation
              JOINT RightHand
              {
                OFFSET -22.8641 0.0664063 -0.1369
                CHANNELS 3 Zrotation Xrotation Yrotation
                JOINT RightHandIndex1
                {
                  OFFSET -8.8614 0.774994 2.4612
                  CHANNELS 3 Zrotation Xrotation Yrotation
                  JOINT RightHandIndex2
                  {
                    OFFSET -3.3146 -0.808304 0.5841
                    CHANNELS 3 Zrotation Xrotation Yrotation
                    JOINT RightHandIndex3
                    {
                      OFFSET -2.2628 -0.552002 0.3989
                      CHANNELS 3 Zrotation Xrotation Yrotation
                      End Site
                      {
                        OFFSET -1.6102 -0.4807 0.2612
                      }
                    }
                  }
                }
                JOINT RightHandMiddle1
                {
                  OFFSET -8.9937 0.894989 0.2143
                  CHANNELS 3 Zrotation Xrotation Yrotation
                  JOINT RightHandMiddle2
                  {
                    OFFSET -4.0984 0.0113983 -0.0242
                    CHANNELS 3 Zrotation Xrotation Yrotation
                    JOINT RightHandMiddle3
                    {
                      OFFSET -2.2716 0.00691223 -0.0138001
                      CHANNELS 3 Zrotation Xrotation Yrotation
                      End Site
                      {
                        OFFSET -2.0404 -0.1441 0.0027
                      }
                    }
                  }
                }
                JOINT RightHandRing1
                {
                  OFFSET -8.5234 0.597198 -2.0164
                  CHANNELS 3 Zrotation Xrotation Yrotation
                  JOINT RightHandRing2
                  {
                    OFFSET -3.7188 -0.188309 -0.2328
                    CHANNELS 3 Zrotation Xrotation Yrotation
                    JOINT RightHandRing3
                    {
                      OFFSET -2.1191 -0.106598 -0.1332
                      CHANNELS 3 Zrotation Xrotation Yrotation
                      End Site
                      {
                        OFFSET -1.8737 -0.2304 -0.0886
                      }
                    }
                  }
                }
                JOINT RightHandPinky1
                {
                  OFFSET -7.9094 -0.601105 -3.4825
                  CHANNELS 3 Zrotation Xrotation Yrotation
                  JOINT RightHandPinky2
                  {
                    OFFSET -2.2874 -0.477005 -0.6314
                    CHANNELS 3 Zrotation Xrotation Yrotation
                    JOINT RightHandPinky3
                    {
                      OFFSET -1.6774 -0.349396 -0.4633
                      CHANNELS 3 Zrotation Xrotation Yrotation
                      End Site
                      {
                        OFFSET -1.4888 -0.4091 -0.3416
                      }
                    }
                  }
                }
                JOINT RightHandThumb1
                {
                  OFFSET -1.833 -1.38751 1.3896
                  CHANNELS 3 Zrotation Xrotation Yrotation
                  JOINT RightHandThumb2
                  {
                    OFFSET -3.41299 -1.12099 2.5732
                    CHANNELS 3 Zrotation Xrotation Yrotation
                    JOINT RightHandThumb3
                    {
                      OFFSET -2.24741 -0.804108 1.6192
                      CHANNELS 3 Zrotation Xrotation Yrotation
                      End Site
                      {
                        OFFSET -1.6527 -0.5689 1.1317
                      }
                    }
                  }
                }
              }
            }
          }
        }
      }
    }
  }
  JOINT RightUpLeg
  {
    OFFSET -9.1966 3.8861 -0.7581
    CHANNELS 3 Zrotation Xrotation Yrotation
    JOINT RightLeg
    {
      OFFSET -0.7359 -41.0265 0
      CHANNELS 3 Zrotation Xrotation Yrotation
      JOINT RightFoot
      {
        OFFSET 0 -40.2855 0
        CHANNELS 3 Zrotation Xrotation Yrotation
        JOINT RightToeBase
        {
          OFFSET 0 -5.6122 11.7359
          CHANNELS 3 Zrotation Xrotation Yrotation
          End Site
          {
            OFFSET 0 0 7.8731
          }
        }
      }
    }
  }
  JOINT LeftUpLeg
  {
    OFFSET 9.1965 3.8864 -0.7581
    CHANNELS 3 Zrotation Xrotation Yrotation
    JOINT LeftLeg
    {
      OFFSET 0.7359 -41.0268 0
      CHANNELS 3 Zrotation Xrotation Yrotation
      JOINT LeftFoot
      {
        OFFSET 0 -40.2855 0
        CHANNELS 3 Zrotation Xrotation Yrotation
        JOINT LeftToeBase
        {
          OFFSET 0 -5.6122 11.7359
          CHANNELS 3 Zrotation Xrotation Yrotation
          End Site
          {
            OFFSET 0 0 7.8731
          }
        }
      }
    }
  }
}
MOTION
Frames:	4
Frame Time:	0.0333333
-0.00121357 4.75801 8.61087 -0 -82.0004 -0 -0.0104387 -4.68228 -0.153573 -0.0336886 -9.36453 -0.309565 -0.0336887 -9.36455 -0.309565 -7.33032 30.1261 -1.30709 14.9913 -10.9818 6.05854 -14.3986 19.7711 8.4329 -70.5746 -4.91332 -53.6405 -15.7237 34.8595 0.356452 -42.3439 -22.8118 8.38363 -8.35216e-007 2.81007e-007 6.84103e-007 -9.44931e-007 5.14116e-007 3.14898e-007 9.54166e-015 3.18055e-015 -0 -8.35216e-007 2.81007e-007 6.84103e-007 -0.0145922 -8.87811e-005 3.34502e-006 8.33046e-007 -2.80934e-007 -6.84139e-007 -8.35216e-007 2.81007e-007 6.84103e-007 -0.0187402 -0.00117755 5.81056e-005 6.36111e-015 0 6.36111e-015 -8.35216e-007 2.81007e-007 6.84103e-007 -0.0122777 -0.00325034 0.000677833 8.3337e-007 -2.81422e-007 -6.84055e-007 -8.35216e-007 2.81007e-007 6.84103e-007 -9.44931e-007 5.14116e-007 3.14898e-007 9.54166e-015 3.18055e-015 -0 14.2715 19.6885 -8.5983 70.6069 -4.85481 53.6435 15.3927 34.8764 -0.357739 42.3393 -22.8128 -8.38791 3.68728e-006 1.79883e-006 -2.12366e-006 2.70707e-006 1.29333e-006 -1.33253e-006 3.18055e-015 1.59028e-015 -0 3.68728e-006 1.79883e-006 -2.12366e-006 0.0149869 -8.92028e-005 -7.11622e-007 4.41391e-031 -7.95139e-015 3.18055e-015 3.68728e-006 1.79883e-006 -2.12366e-006 0.0189834 -0.00118575 -5.88582e-005 -6.36111e-015 -3.49861e-014 -0 3.68728e-006 1.79883e-006 -2.12366e-006 0.0122481 -0.00324193 -0.000678295 -3.18055e-015 4.77083e-015 -6.36111e-015 3.68728e-006 1.79883e-006 -2.12366e-006 2.70707e-006 1.29333e-006 -1.33253e-006 3.18055e-015 1.59028e-015 -0 -14.6068 -14.833 -44.5523 -1.96663 48.7353 0.0114842 0.406111 14.079 -4.52948 -1.19271e-014 0 7.95139e-015 15.484 -14.12 46.824 1.96229 48.7105 0.0258738 1.26147 14.0189 2.21619 7.98967e-006 2.75396e-006 -2.5831e-006 
-0.00116011 4.69556 8.61057 -0 -82.0004 -0 -0.0108739 -4.59711 -0.153562 -0.0343218 -9.19422 -0.309504 -0.0343217 -9.19422 -0.309504 -7.33026 30.1257 -1.30711 15.0534 -10.8255 6.07347 -14.4635 19.4733 8.18987 -70.476 -5.04233 -53.6002 -15.7065 34.8604 0.356497 -42.3438 -22.8118 8.38365 -6.36111e-015 6.36111e-015 -1.27222e-014 -9.48732e-007 5.12907e-007 3.23634e-007 1.76556e-031 -3.18055e-015 3.18055e-015 -6.36111e-015 6.36111e-015 -1.27222e-014 -0.0146212 -9.02851e-005 -5.31129e-006 0 0 -0 -6.36111e-015 6.36111e-015 -1.27222e-014 -0.0187375 -0.00117355 5.69092e-005 3.18055e-015 6.36111e-015 3.18055e-015 -6.36111e-015 6.36111e-015 -1.27222e-014 -0.0122618 -0.00324026 0.000679256 -3.18055e-015 -7.95139e-015 -0 -6.36111e-015 6.36111e-015 -1.27222e-014 -9.48732e-007 5.12907e-007 3.23634e-007 1.76556e-031 -3.18055e-015 3.18055e-015 14.3427 19.3946 -8.34689 70.5064 -4.98712 53.603 15.3927 34.8764 -0.357755 42.3393 -22.8128 -8.3879 3.67572e-006 1.80258e-006 -2.10916e-006 5.33584e-006 -2.34971e-006 4.33175e-007 -9.69482e-007 -5.07452e-007 7.74691e-007 3.67572e-006 1.80258e-006 -2.10916e-006 0.014979 -8.99693e-005 -2.3036e-006 6.36111e-015 -1.11319e-014 3.18055e-015 3.67572e-006 1.80258e-006 -2.10916e-006 0.0189617 -0.00119168 -6.34646e-005 -9.54166e-015 -1.90833e-014 1.27222e-014 3.67572e-006 1.80258e-006 -2.10916e-006 0.0122618 -0.00324164 -0.000677098 -9.54166e-015 3.18055e-015 3.18055e-015 3.67572e-006 1.80258e-006 -2.10916e-006 5.33584e-006 -2.34971e-006 4.33175e-007 -9.69482e-007 -5.07452e-007 7.74691e-007 -14.7341 -14.8501 -44.8813 -1.96672 48.737 0.00529897 0.163451 14.0966 -4.24224 -3.18055e-015 3.18055e-015 -0 15.5638 -14.171 47.0324 1.96249 48.7136 0.0297413 1.41617 14.0327 2.05079 2.4992e-007 3.52514e-006 -3.50679e-007 
-0.0011048 4.63312 8.61027 -0 -82.0004 -0 -0.0113088 -4.51197 -0.153548 -0.0349543 -9.02386 -0.309439 -0.0349544 -9.02389 -0.30944 -7.33027 30.1259 -1.30712 15.1155 -10.6692 6.08822 -14.5295 19.1756 7.94693 -70.3772 -5.17128 -53.5597 -15.6894 34.8613 0.356565 -42.3439 -22.8118 8.38363 9.54166e-015 -3.18055e-015 -0 1.76556e-031 -1.59028e-015 6.36111e-015 6.36111e-015 -1.59028e-015 -3.18055e-015 9.54166e-015 -3.18055e-015 -0 -0.0146019 -8.83525e-005 -1.07883e-006 -9.53724e-007 5.11596e-007 3.3237e-007 9.54166e-015 -3.18055e-015 -0 -0.0187505 -0.00117049 6.07808e-005 6.36111e-015 3.18055e-015 -1.27222e-014 9.54166e-015 -3.18055e-015 -0 -0.0122799 -0.00325822 0.000676484 3.53113e-031 -6.36111e-015 3.18055e-015 9.54166e-015 -3.18055e-015 -0 1.76556e-031 -1.59028e-015 6.36111e-015 6.36111e-015 -1.59028e-015 -3.18055e-015 14.4152 19.101 -8.09556 70.4058 -5.11937 53.5622 15.3927 34.8764 -0.357726 42.3393 -22.8128 -8.3879 9.58674e-007 5.09478e-007 -7.58404e-007 -3.18055e-015 -1.59028e-015 3.18055e-015 -9.58674e-007 -5.09478e-007 7.58404e-007 9.58674e-007 5.09478e-007 -7.58404e-007 0.0149758 -8.51383e-005 9.34277e-007 9.54166e-015 9.54166e-015 9.54166e-015 9.58674e-007 5.09478e-007 -7.58404e-007 0.0189764 -0.00118962 -5.89038e-005 -9.54166e-015 4.77083e-015 -3.18055e-015 9.58674e-007 5.09478e-007 -7.58404e-007 0.0122637 -0.00324573 -0.000680214 -9.56827e-007 -5.09885e-007 7.58385e-007 9.58674e-007 5.09478e-007 -7.58404e-007 -3.18055e-015 -1.59028e-015 3.18055e-015 -9.58674e-007 -5.09478e-007 7.58404e-007 -14.8616 -14.8666 -45.2104 -1.96683 48.7389 -0.000857321 -0.0793267 14.1128 -3.95496 5.11533e-007 5.68084e-007 1.47929e-006 15.6438 -14.2217 47.2409 1.96261 48.7166 0.0336523 1.57093 14.0462 1.88538 2.69675e-006 3.3283e-006 -2.85429e-006 
-0.00104765 4.57067 8.60997 -0 -82.0004 -0 -0.0117432 -4.42681 -0.153532 -0.0355859 -8.85358 -0.30937 -0.0355858 -8.85357 -0.30937 -7.33027 30.1255 -1.30712 15.1774 -10.5129 6.10279 -14.5968 18.8783 7.70408 -70.2784 -5.30015 -53.5189 -15.6721 34.8622 0.356623 -42.3439 -22.8118 8.38363 8.08966e-007 -2.93534e-007 -6.38245e-007 -1.27222e-014 4.77083e-015 -6.36111e-015 -8.08966e-007 2.93534e-007 6.38245e-007 8.08966e-007 -2.93534e-007 -6.38245e-007 -0.0146588 -9.01033e-005 5.16759e-006 -3.18055e-015 4.77083e-015 -3.18055e-015 8.08966e-007 -2.93534e-007 -6.38245e-007 -0.0187571 -0.00117725 6.18863e-005 -8.0617e-007 2.93605e-007 6.38292e-007 8.08966e-007 -2.93534e-007 -6.38245e-007 -0.0122616 -0.00325476 0.000680846 3.18055e-015 6.36111e-015 -0 8.08966e-007 -2.93534e-007 -6.38245e-007 -1.27222e-014 4.77083e-015 -6.36111e-015 -8.08966e-007 2.93534e-007 6.38245e-007 14.4889 18.8078 -7.84431 70.3051 -5.25156 53.5212 15.3927 34.8764 -0.357741 42.3393 -22.8128 -8.3879 2.70459e-006 1.29862e-006 -1.33836e-006 -3.18055e-015 3.18055e-015 3.18055e-015 2.70459e-006 1.29862e-006 -1.33836e-006 2.70459e-006 1.29862e-006 -1.33836e-006 0.0149818 -9.08779e-005 1.73584e-006 2.70471e-006 1.29845e-006 -1.33854e-006 2.70459e-006 1.29862e-006 -1.33836e-006 0.0190131 -0.00119026 -5.95681e-005 2.70473e-006 1.29839e-006 -1.33861e-006 2.70459e-006 1.29862e-006 -1.33836e-006 0.0122755 -0.00325144 -0.000674928 2.70465e-006 1.29847e-006 -1.33859e-006 2.70459e-006 1.29862e-006 -1.33836e-006 -3.18055e-015 3.18055e-015 3.18055e-015 2.70459e-006 1.29862e-006 -1.33836e-006 -14.9891 -14.8823 -45.5395 -1.96691 48.7406 -0.00696185 -0.32216 14.128 -3.66762 -7.95139e-016 -3.18055e-015 -1.59028e-015 15.724 -14.2721 47.4494 1.9628 48.7196 0.0375267 1.72576 14.0592 1.71992 -5.12911e-007 5.64588e-007 -1.47959e-006 
